<svg width="33" height="17" viewBox="0 0 33 17" fill="none" xmlns="http://www.w3.org/2000/svg">
<path d="M21.2139 11.7599L20.7492 12.2246C20.55 12.4238 20.2181 12.4238 20.0189 12.2246L17.3633 9.56904L14.7077 12.2246C14.5085 12.4238 14.1766 12.4238 13.9774 12.2246L13.5127 11.7599C13.3135 11.5607 13.3135 11.2288 13.5127 11.0296L16.1683 8.37402L13.5127 5.71842C13.3135 5.51925 13.3135 5.1873 13.5127 4.98813L13.9774 4.5234C14.1766 4.32423 14.5085 4.32423 14.7077 4.5234L17.3633 7.179L20.0189 4.5234C20.2181 4.32423 20.55 4.32423 20.7492 4.5234L21.2139 4.98813C21.4131 5.1873 21.4131 5.51925 21.2139 5.71842L18.5583 8.37402L21.2139 11.0296C21.4131 11.2288 21.4131 11.5607 21.2139 11.7599Z" fill="#303030"/>
<path d="M29.8097 0.874023H6.94797C6.36691 0.874023 5.97953 1.13951 5.65671 1.60411L1.46013 8.10854C1.331 8.30765 1.331 8.50677 1.46013 8.63951L5.65671 15.1439C5.97953 15.5422 6.36691 15.874 6.94797 15.874H29.7451C30.649 15.874 31.3592 15.1439 31.3592 14.2147V2.53332C31.4238 1.60411 30.7136 0.874023 29.8097 0.874023Z" stroke="#303030" stroke-width="1.5" stroke-linejoin="round"/>
</svg>
