<svg width="17" height="13" viewBox="0 0 17 13" fill="none" xmlns="http://www.w3.org/2000/svg">
<path fill-rule="evenodd" clip-rule="evenodd" d="M16.455 0.759222C16.6893 0.993632 16.821 1.31152 16.821 1.64297C16.821 1.97443 16.6893 2.29231 16.455 2.52672L7.08583 11.8959C6.96202 12.0197 6.81502 12.118 6.65323 12.185C6.49145 12.252 6.31804 12.2865 6.14292 12.2865C5.9678 12.2865 5.79439 12.252 5.6326 12.185C5.47082 12.118 5.32382 12.0197 5.2 11.8959L0.545001 7.24172C0.425614 7.12641 0.330386 6.98848 0.264875 6.83598C0.199363 6.68347 0.164881 6.51945 0.163438 6.35347C0.161996 6.1875 0.193623 6.0229 0.256474 5.86928C0.319326 5.71566 0.412142 5.57609 0.529508 5.45873C0.646874 5.34136 0.786438 5.24855 0.940059 5.1857C1.09368 5.12284 1.25828 5.09122 1.42425 5.09266C1.59023 5.0941 1.75425 5.12858 1.90676 5.1941C2.05926 5.25961 2.19719 5.35483 2.3125 5.47422L6.1425 9.30422L14.6867 0.759222C14.8028 0.643064 14.9406 0.550918 15.0923 0.488049C15.244 0.425181 15.4066 0.392822 15.5708 0.392822C15.7351 0.392822 15.8977 0.425181 16.0494 0.488049C16.2011 0.550918 16.3389 0.643064 16.455 0.759222Z" fill="currentColor"/>
</svg>
