<svg width="77" height="75" viewBox="0 0 77 75" fill="none" xmlns="http://www.w3.org/2000/svg">
<path d="M16.1027 39.1666C18.4912 52.1892 29.2241 62.0025 42.1048 62.0025C56.7445 62.0025 67.7798 49.3008 68.613 33.686C69.2302 22.0581 62.7806 10.5414 48.5112 4.13502C42.2475 1.3461 35.2574 0.628278 28.5576 2.08596C42.2777 -1.62951 54.1894 2.0983 62.256 8.66517C67.3169 12.6522 72.2051 18.1267 74.1801 23.7246C75.5693 27.6675 76.3538 31.798 76.5069 35.9757C76.5069 57.207 59.923 74.4265 38.698 74.4265C29.5896 74.4301 20.7759 71.1986 13.8286 65.3081C6.88122 59.4177 2.25176 51.2512 0.765625 42.2649C1.11742 32.501 13.0045 31.0135 16.0904 39.1666H16.1027Z" fill="#C2FF05"/>
<path d="M16.1027 39.1666C18.4912 52.1892 29.2241 62.0025 42.1048 62.0025C56.7445 62.0025 67.7798 49.3008 68.613 33.686C69.2302 22.0581 62.7806 10.5414 48.5112 4.13502C42.2475 1.3461 35.2574 0.628278 28.5576 2.08596C42.2777 -1.62951 54.1894 2.0983 62.256 8.66517C67.3169 12.6522 72.2051 18.1267 74.1801 23.7246C75.5693 27.6675 76.3538 31.798 76.5069 35.9757C76.5069 57.207 59.923 74.4265 38.698 74.4265C29.5896 74.4301 20.7759 71.1986 13.8286 65.3081C6.88122 59.4177 2.25176 51.2512 0.765625 42.2649C1.11742 32.501 13.0045 31.0135 16.0904 39.1666H16.1027Z" fill="url(#paint0_linear_8_309)"/>
<defs>
<linearGradient id="paint0_linear_8_309" x1="21.0684" y1="-27.8045" x2="72.6749" y2="-24.5528" gradientUnits="userSpaceOnUse">
<stop stop-color="#0B80BF"/>
<stop offset="1" stop-color="#68D1FF"/>
</linearGradient>
</defs>
</svg>
