<svg width="80" height="79" viewBox="0 0 80 79" fill="none" xmlns="http://www.w3.org/2000/svg">
<path d="M17.1027 39.1666C19.4912 52.1892 30.2241 62.0025 43.1048 62.0025C57.7445 62.0025 68.7798 49.3008 69.613 33.686C70.2302 22.0581 63.7806 10.5414 49.5112 4.13502C43.2475 1.3461 36.2574 0.628278 29.5576 2.08596C43.2777 -1.62951 55.1894 2.0983 63.256 8.66517C68.3169 12.6522 73.2051 18.1267 75.1801 23.7246C76.5693 27.6675 77.3538 31.798 77.5069 35.9757C77.5069 57.207 60.923 74.4265 39.698 74.4265C30.5896 74.4301 21.7759 71.1986 14.8286 65.3081C7.88122 59.4177 3.25176 51.2512 1.76562 42.2649C2.11742 32.501 14.0045 31.0135 17.0904 39.1666H17.1027Z" fill="#C2FF05"/>
</svg>
