<svg width="94" height="93" viewBox="0 0 94 93" fill="none" xmlns="http://www.w3.org/2000/svg">
<g clip-path="url(#clip0_5_1070)">
<path d="M59.0127 5.05728C57.4481 3.45617 55.5793 2.18393 53.5161 1.31532C51.4529 0.446718 49.2369 -0.000732422 46.9982 -0.000732422C44.7596 -0.000732422 42.5436 0.446718 40.4804 1.31532C38.4172 2.18393 36.5484 3.45617 34.9838 5.05728L31.3684 8.76565L26.1953 8.70171C23.956 8.67521 21.7341 9.09672 19.6601 9.94145C17.5861 10.7862 15.702 12.0371 14.1184 13.6206C12.5349 15.2041 11.284 17.0883 10.4393 19.1622C9.59457 21.2362 9.17306 23.4582 9.19956 25.6975L9.25769 30.8706L5.56094 34.486C3.95983 36.0505 2.68759 37.9193 1.81899 39.9825C0.95038 42.0458 0.50293 44.2618 0.50293 46.5004C0.50293 48.739 0.95038 50.955 1.81899 53.0183C2.68759 55.0815 3.95983 56.9503 5.56094 58.5148L9.2635 62.1302L9.19956 67.3033C9.17306 69.5426 9.59457 71.7646 10.4393 73.8386C11.284 75.9126 12.5349 77.7967 14.1184 79.3802C15.702 80.9637 17.5861 82.2146 19.6601 83.0594C21.7341 83.9041 23.956 84.3256 26.1953 84.2991L31.3684 84.241L34.9838 87.9377C36.5484 89.5388 38.4172 90.8111 40.4804 91.6797C42.5436 92.5483 44.7596 92.9957 46.9982 92.9957C49.2369 92.9957 51.4529 92.5483 53.5161 91.6797C55.5793 90.8111 57.4481 89.5388 59.0127 87.9377L62.6281 84.2352L67.8012 84.2991C70.0405 84.3256 72.2624 83.9041 74.3364 83.0594C76.4104 82.2146 78.2945 80.9637 79.8781 79.3802C81.4616 77.7967 82.7125 75.9126 83.5572 73.8386C84.4019 71.7646 84.8234 69.5426 84.7969 67.3033L84.7388 62.1302L88.4356 58.5148C90.0367 56.9503 91.3089 55.0815 92.1775 53.0183C93.0461 50.955 93.4936 48.739 93.4936 46.5004C93.4936 44.2618 93.0461 42.0458 92.1775 39.9825C91.3089 37.9193 90.0367 36.0505 88.4356 34.486L84.733 30.8706L84.7969 25.6975C84.8234 23.4582 84.4019 21.2362 83.5572 19.1622C82.7125 17.0883 81.4616 15.2041 79.8781 13.6206C78.2945 12.0371 76.4104 10.7862 74.3364 9.94145C72.2624 9.09672 70.0405 8.67521 67.8012 8.70171L62.6281 8.75984L59.0127 5.06309V5.05728ZM60.6809 39.8393L43.2434 57.2768C42.9734 57.5474 42.6527 57.7622 42.2996 57.9087C41.9465 58.0552 41.568 58.1306 41.1857 58.1306C40.8035 58.1306 40.425 58.0552 40.0719 57.9087C39.7188 57.7622 39.3981 57.5474 39.1281 57.2768L30.4094 48.558C30.1392 48.2878 29.9248 47.967 29.7786 47.614C29.6323 47.2609 29.5571 46.8825 29.5571 46.5004C29.5571 46.1183 29.6323 45.7399 29.7786 45.3868C29.9248 45.0338 30.1392 44.713 30.4094 44.4428C30.6796 44.1726 31.0004 43.9582 31.3534 43.812C31.7065 43.6657 32.0849 43.5905 32.467 43.5905C32.8491 43.5905 33.2275 43.6657 33.5806 43.812C33.9336 43.9582 34.2544 44.1726 34.5246 44.4428L41.1857 51.1097L56.5656 35.724C57.1113 35.1783 57.8515 34.8717 58.6232 34.8717C59.395 34.8717 60.1352 35.1783 60.6809 35.724C61.2266 36.2697 61.5332 37.0099 61.5332 37.7817C61.5332 38.5534 61.2266 39.2936 60.6809 39.8393V39.8393Z" fill="#88D05E"/>
</g>
<defs>
<clipPath id="clip0_5_1070">
<rect width="93" height="93" fill="white" transform="translate(0.5)"/>
</clipPath>
</defs>
</svg>
